<svg xmlns:dc="http://purl.org/dc/elements/1.1/" xmlns:cc="http://creativecommons.org/ns#" xmlns:rdf="http://www.w3.org/1999/02/22-rdf-syntax-ns#" xmlns:svg="http://www.w3.org/2000/svg" xmlns="http://www.w3.org/2000/svg" xmlns:sodipodi="http://sodipodi.sourceforge.net/DTD/sodipodi-0.dtd" xmlns:inkscape="http://www.inkscape.org/namespaces/inkscape" width="20px" height="20px" viewBox="-7.8 -7.8 45.60 45.60" version="1.1" id="svg822" inkscape:version="0.92.4 (f8dce91, 2019-08-02)" sodipodi:docname="family.svg" fill="#e4e2e2"><g id="SVGRepo_bgCarrier" stroke-width="0"></g><g id="SVGRepo_tracerCarrier" stroke-linecap="round" stroke-linejoin="round"></g><g id="SVGRepo_iconCarrier"> <defs id="defs816"></defs> <sodipodi:namedview id="base" pagecolor="#ffffff" bordercolor="#d8cbcb" borderopacity="1.0" inkscape:pageopacity="0.0" inkscape:pageshadow="2" inkscape:zoom="12.610071" inkscape:cx="3.1176514" inkscape:cy="11.350312" inkscape:document-units="px" inkscape:current-layer="layer1" showgrid="true" units="px" inkscape:window-width="1366" inkscape:window-height="713" inkscape:window-x="0" inkscape:window-y="0" inkscape:window-maximized="1" showguides="true" inkscape:snap-global="false"> <inkscape:grid type="xygrid" id="grid816"></inkscape:grid> </sodipodi:namedview> <metadata id="metadata819"> <rdf:rdf> <cc:work rdf:about=""> <dc:format>image/svg+xml</dc:format> <dc:type rdf:resource="http://purl.org/dc/dcmitype/StillImage"></dc:type> <dc:title> </dc:title> </cc:work> </rdf:rdf> </metadata> <g inkscape:label="Layer 1" inkscape:groupmode="layer" id="layer1" transform="translate(0,-289.0625)"> <path style="opacity:0.91000001;fill:#78ed95;fill-opacity:1;stroke:#ff0000;stroke-width:0.004;stroke-miterlimit:4;stroke-dasharray:none;stroke-opacity:1" d="m 21.608582,291.91329 a 2.5103279,2.5103015 0 0 0 -2.510326,2.51029 2.5103279,2.5103015 0 0 0 2.510326,2.5103 2.5103279,2.5103015 0 0 0 2.510328,-2.5103 2.5103279,2.5103015 0 0 0 -2.510328,-2.51029 z m 2.245568,5.54153 -2.191635,3.42838 -2.221051,-3.42593 c -2.031869,0.86222 -3.375318,2.82902 -3.439442,5.03531 1.374267,1.57104 3.38924,2.56792 5.642107,2.56792 2.251919,0 4.266652,-0.99558 5.640885,-2.56546 -0.06074,-2.20606 -1.400771,-4.17468 -3.430864,-5.04022 z" id="path855" inkscape:connector-curvature="0"></path> <path style="opacity:0.91000001;fill:#78ed95;fill-opacity:1;stroke:#ff0000;stroke-width:0.004;stroke-miterlimit:4;stroke-dasharray:none;stroke-opacity:1" d="m 14.970358,304.9045 a 2.1300753,2.1301034 0 0 0 -2.130074,2.1301 2.1300753,2.1301034 0 0 0 2.130074,2.1301 2.1300753,2.1301034 0 0 0 2.130076,-2.1301 2.1300753,2.1301034 0 0 0 -2.130076,-2.1301 z m 1.905419,4.70225 -1.859655,2.90912 -1.884617,-2.90704 c -1.724091,0.73163 -2.864042,2.40055 -2.918453,4.27268 1.1661,1.33309 2.875856,2.17899 4.787469,2.17899 1.910808,0 3.620359,-0.84479 4.786429,-2.17691 -0.05153,-1.87194 -1.188587,-3.5424 -2.911173,-4.27684 z" id="path857" inkscape:connector-curvature="0"></path> <path inkscape:connector-curvature="0" id="path859" d="m 8.6085828,291.9133 a 2.5103279,2.5103015 0 0 0 -2.5103268,2.51028 2.5103279,2.5103015 0 0 0 2.5103268,2.5103 2.5103279,2.5103015 0 0 0 2.5103282,-2.5103 2.5103279,2.5103015 0 0 0 -2.5103282,-2.51028 z m 2.2455672,5.54153 -2.191634,3.42838 -2.2210511,-3.42592 c -2.0318699,0.86222 -3.3753188,2.82902 -3.4394429,5.03531 1.3742675,1.57103 3.3892412,2.5679 5.6421076,2.5679 2.2519184,0 4.2666514,-0.99557 5.6408844,-2.56546 -0.06074,-2.20605 -1.40077,-4.17467 -3.430864,-5.04021 z" style="opacity:0.91000001;fill:#78ed95;fill-opacity:1;stroke:#ff0000;stroke-width:0.004;stroke-miterlimit:4;stroke-dasharray:none;stroke-opacity:1"></path> </g> </g></svg>