<svg fill="red" width="64px" height="64px" viewBox="-2.08 -2.08 20.16 20.16" xmlns="http://www.w3.org/2000/svg"
     stroke="red">
  <g id="SVGRepo_bgCarrier" stroke-width="0">
    <rect x="-2.08" y="-2.08" width="20.16" height="20.16" rx="10.08" opacity="0" fill="#dcdcdc"
          strokewidth="0"></rect>
  </g>
  <g id="SVGRepo_tracerCarrier" stroke-linecap="round" stroke-linejoin="round"></g>
  <g id="SVGRepo_iconCarrier">
    <path
      d="M6.12 6.75H4.87v7.05l-2.05-3-1 .71 2.67 3.93a1.29 1.29 0 0 0 1 .59 1.29 1.29 0 0 0 1-.59l2.67-3.93-1-.71-2.06 3zM9.45.59 6.78 4.52l1 .71 2.06-3v7.02h1.25v-7l2 3 1-.71L11.55.59a1.23 1.23 0 0 0-2.1 0z"></path>
  </g>
</svg>
