 <svg
        fill="#52e592"
        width="40px"
        height="40px"
        viewBox="-19.2 -19.2 70.40 70.40"
        version="1.1"
        xmlns="http://www.w3.org/2000/svg"
      >
        <g id="SVGRepo_bgCarrier" stroke-width="0">
          <rect
            x="-19.2"
            y="-19.2"
            width="70.40"
            height="70.40"
            opacity="0.1"
            rx="35.2"
            fill="#32A071"
            strokewidth="0"
          ></rect>
        </g>
        <g
          id="SVGRepo_tracerCarrier"
          stroke-linecap="round"
          stroke-linejoin="round"
          stroke="#CCCCCC"
          stroke-width="0.44800000000000006"
        ></g>
        <g id="SVGRepo_iconCarrier">
          <title>stats</title>
          <path
            d="M5.998 5h-0.987v23h20v-0.963l-18.996-0.049-0.017-21.988zM8.011 25h5v-10.875l-5 5v5.875zM14.011 25h5v-9.875l-2 2-3-3v10.875zM20.011 25h5v-15.187l-5 5v10.187zM13.387 11.067l3.62 3.6 7.148-7.112 1.834 1.844-0.044-4.399-4.415 0.023 1.717 1.722-6.242 6.26-3.689-3.703-5.623 5.604 0.939 0.912 4.755-4.751z"
          ></path>
        </g>
      </svg>