<svg fill="transparent" width="27px" height="27px" viewBox="-6 0 32 32" version="1.1"
                 xmlns="http://www.w3.org/2000/svg" stroke="#9CA3AFFF" transform="matrix(1, 0, 0, 1, 0, 0)">
              <g id="SVGRepo_bgCarrier" stroke-width="0"></g>
              <g id="SVGRepo_tracerCarrier" stroke-linecap="round" stroke-linejoin="round"></g>
              <g id="SVGRepo_iconCarrier"><title>users</title>
                <path
                  d="M17 11.8c-0.28-1.4-1.4-2.52-2.84-2.84-0.36-1.68-1.84-2.92-3.6-2.92h-6.88c-2.040 0-3.68 1.64-3.68 3.68v6.88c0 1.76 1.24 3.24 2.92 3.6 0.28 1.4 1.4 2.52 2.84 2.84 0.36 1.68 1.84 2.92 3.6 2.92h6.88c2.040 0 3.68-1.64 3.68-3.68v-6.88c0-1.76-1.24-3.24-2.92-3.6zM18.24 15.4v6.88c0 0.080 0 0.16 0 0.24-0.48-1.12-1.32-2.080-2.4-2.72 0.24-0.48 0.36-1 0.36-1.56 0-1.88-1.52-3.4-3.4-3.4s-3.4 1.52-3.4 3.4c0 0.56 0.12 1.080 0.36 1.56-1.080 0.64-1.88 1.6-2.4 2.72 0-0.080 0-0.16 0-0.24v-6.88c0-1.12 0.88-2 2-2h6.88c1.12 0 2 0.88 2 2zM11.040 18.28c0-0.96 0.76-1.72 1.72-1.72s1.72 0.76 1.72 1.72c0 0.96-0.76 1.72-1.72 1.72-0.92 0-1.72-0.76-1.72-1.72zM1.68 16.6v-6.88c0-1.12 0.88-2 2-2h6.88c0.8 0 1.48 0.48 1.8 1.16h-5.84c-2.040 0-3.68 1.64-3.68 3.68v5.88c-0.68-0.32-1.16-1.040-1.16-1.84zM4.52 19.44v-6.88c0-1.12 0.88-2 2-2h6.88c0.8 0 1.48 0.48 1.8 1.16h-5.84c-2.040 0-3.68 1.64-3.68 3.68v5.88c-0.68-0.32-1.16-1.040-1.16-1.84zM9.36 24.28c-0.28 0-0.52-0.040-0.76-0.16 0-0.040 0.040-0.080 0.040-0.12 0.28-1.24 1.12-2.32 2.28-2.92 0.56 0.36 1.2 0.56 1.88 0.56s1.36-0.2 1.88-0.56c1.16 0.6 2 1.64 2.28 2.92 0 0.040 0.040 0.080 0.040 0.12-0.24 0.080-0.48 0.16-0.76 0.16h-6.88z"></path>
              </g>
            </svg>